<svg xmlns="http://www.w3.org/2000/svg" width="current" height="current" viewBox="0 0 32 32"><g transform="translate(-206 -348)"><circle cx="16" cy="16" r="16" transform="translate(206 348)" fill="none"/><path d="M3702.425-6265.453a.894.894,0,0,1-.432-1.187l2.124-4.553-4.553,2.123a.892.892,0,0,1-1.187-.43.894.894,0,0,1,.432-1.187l5.04-2.351-5.04-2.35a.9.9,0,0,1-.432-1.187.894.894,0,0,1,1.187-.432l4.551,2.123-2.122-4.552a.894.894,0,0,1,.432-1.187.9.9,0,0,1,1.187.432l2.35,5.041,2.35-5.039a.892.892,0,0,1,1.185-.434.894.894,0,0,1,.432,1.187l-2.122,4.552,4.551-2.123a.894.894,0,0,1,1.187.432.893.893,0,0,1-.432,1.187l-5.04,2.35,5.04,2.351a.892.892,0,0,1,.432,1.186.891.891,0,0,1-1.187.432l-4.552-2.122,2.123,4.553a.892.892,0,0,1-.432,1.186.891.891,0,0,1-1.187-.432l-2.35-5.039-2.349,5.039a.9.9,0,0,1-.812.517A.887.887,0,0,1,3702.425-6265.453Z" transform="translate(-3484 6637)" fill="current"/></g></svg>