<svg xmlns="http://www.w3.org/2000/svg" width="current" height="current" viewBox="0 0 32 32"><g transform="translate(0)"><g transform="translate(0)"><ellipse cx="16" cy="16" rx="16" ry="16" transform="translate(0)" fill="none"/></g><g transform="translate(4 10.041)"><path fill="current" d="M504.6,146.819l8.587-4.958a1,1,0,0,1,1.5.866v9.916a1,1,0,0,1-1.5.866l-8.587-4.958A1,1,0,0,1,504.6,146.819Z" transform="translate(-492.831 -141.725)"/><path fill="current" d="M515.865,146.819l8.587-4.958a1,1,0,0,1,1.5.866v9.916a1,1,0,0,1-1.5.866l-8.587-4.958A1,1,0,0,1,515.865,146.819Z" transform="translate(-515.365 -141.725)"/></g></g></svg>