<svg xmlns="http://www.w3.org/2000/svg" width="current" height="current" viewBox="0 0 32 32"><g transform="translate(-497.952 -131.685)"><circle cx="16" cy="16" r="16" transform="translate(497.952 131.685)" fill="none"/><path fill="current" d="M514.185,146.819l-8.587-4.958a1,1,0,0,0-1.5.866v9.916a1,1,0,0,0,1.5.866l8.587-4.958A1,1,0,0,0,514.185,146.819Z"/><path fill="current" d="M525.452,146.819l-8.587-4.958a1,1,0,0,0-1.5.866v9.916a1,1,0,0,0,1.5.866l8.587-4.958A1,1,0,0,0,525.452,146.819Z"/></g></svg>