<svg xmlns="http://www.w3.org/2000/svg" width="current" height="current" viewBox="0 0 32 32"><g transform="translate(-238.904 -131.685)"><circle cx="16" cy="16" r="16" transform="translate(238.904 131.685)" fill="none"/><path fill="current" d="M3766.566-8563.093a1.8,1.8,0,0,1-1.8-1.8v-12.136a1.8,1.8,0,0,1,1.8-1.8H3778.7a1.8,1.8,0,0,1,1.8,1.8v12.136a1.8,1.8,0,0,1-1.8,1.8Zm-.2-13.935v12.136a.2.2,0,0,0,.2.2H3778.7a.2.2,0,0,0,.2-.2v-12.136a.2.2,0,0,0-.2-.2h-12.136A.2.2,0,0,0,3766.366-8577.027Zm-4.726,9.449a1.586,1.586,0,0,1-1.585-1.585v-12.567a1.588,1.588,0,0,1,1.585-1.585h12.565a1.59,1.59,0,0,1,1.588,1.585v1.459h-1.6v-1.443h-12.537v12.537h1.555v1.6Z" transform="translate(-3515.471 8720.744)"/></g></svg>