<svg xmlns="http://www.w3.org/2000/svg" width="current" height="current" viewBox="0 0 32 32"><g transform="translate(-165.055 -131.685)"><circle cx="16" cy="16" r="16" transform="translate(165.055 131.685)" fill="none"/><path fill="current" d="M3773.255-8555.316v-3.149h1.6v3.149Zm7.906-5.763,1.131-1.131,2.228,2.228-1.131,1.134Zm-17.571,1.1,2.228-2.228,1.131,1.131-2.227,2.23Zm1.881-9.334a8.584,8.584,0,0,1,8.584-8.584,8.584,8.584,0,0,1,8.584,8.584,8.585,8.585,0,0,1-8.584,8.585A8.585,8.585,0,0,1,3765.47-8569.316Zm1.6,0a6.993,6.993,0,0,0,6.984,6.984,6.991,6.991,0,0,0,6.984-6.984,6.992,6.992,0,0,0-6.984-6.983A6.994,6.994,0,0,0,3767.071-8569.316Zm17.834.8v-1.6h3.149v1.6Zm-24.85,0v-1.6h3.152v1.6Zm21.106-9.039,2.228-2.228,1.131,1.132-2.228,2.229Zm-17.571-1.1,1.131-1.132,2.227,2.228-1.131,1.134Zm9.666-1.515v-3.151h1.6v3.151Z" transform="translate(-3593 8717)"/></g></svg>