<svg xmlns="http://www.w3.org/2000/svg" width="current" height="current" viewBox="0 0 32 32"><g transform="translate(-814 -242)"><path d="M148.842,107.44a12.525,12.525,0,0,0-3.958,24.407c.627.115.855-.271.855-.6,0-.3-.011-1.085-.017-2.13-3.483.757-4.218-1.678-4.218-1.678a3.317,3.317,0,0,0-1.391-1.832c-1.137-.777.086-.761.086-.761a2.629,2.629,0,0,1,1.918,1.29,2.666,2.666,0,0,0,3.645,1.041,2.677,2.677,0,0,1,.795-1.674c-2.781-.316-5.7-1.39-5.7-6.19a4.841,4.841,0,0,1,1.289-3.36,4.5,4.5,0,0,1,.123-3.314s1.051-.337,3.444,1.284a11.876,11.876,0,0,1,6.27,0c2.391-1.621,3.44-1.284,3.44-1.284a4.5,4.5,0,0,1,.125,3.314,4.833,4.833,0,0,1,1.287,3.36c0,4.811-2.928,5.87-5.718,6.18a2.99,2.99,0,0,1,.85,2.319c0,1.674-.015,3.025-.015,3.436,0,.334.226.724.861.6a12.525,12.525,0,0,0-3.967-24.406Z" transform="translate(681.156 137.9)" fill="current" fill-rule="evenodd"/><circle cx="16" cy="16" r="16" transform="translate(814 242)" fill="none"/></g></svg>